<mxfile host="app.diagrams.net" modified="2022-06-01T13:55:26.642Z" agent="5.0 (X11)" etag="VuigOgVNx5MYCHVN19a0" version="18.2.0" type="github">
  <diagram id="ZYSUJnkZnG6bcO6LNA63" name="第 1 页">
    <mxGraphModel dx="494" dy="275" grid="1" gridSize="10" guides="1" tooltips="1" connect="1" arrows="1" fold="1" page="1" pageScale="1" pageWidth="827" pageHeight="1169" math="0" shadow="0">
      <root>
        <mxCell id="0" />
        <mxCell id="1" parent="0" />
        <mxCell id="t37ES13LrVQpmOyh6zs5-41" style="edgeStyle=none;rounded=0;orthogonalLoop=1;jettySize=auto;html=1;exitX=0;exitY=1;exitDx=0;exitDy=0;endArrow=none;endFill=0;" edge="1" parent="1" source="t37ES13LrVQpmOyh6zs5-11" target="t37ES13LrVQpmOyh6zs5-13">
          <mxGeometry relative="1" as="geometry" />
        </mxCell>
        <mxCell id="t37ES13LrVQpmOyh6zs5-11" value="" style="ellipse;whiteSpace=wrap;html=1;aspect=fixed;" vertex="1" parent="1">
          <mxGeometry x="170" y="130" width="20" height="20" as="geometry" />
        </mxCell>
        <mxCell id="t37ES13LrVQpmOyh6zs5-34" style="edgeStyle=none;rounded=0;orthogonalLoop=1;jettySize=auto;html=1;exitX=0;exitY=1;exitDx=0;exitDy=0;endArrow=none;endFill=0;" edge="1" parent="1" source="t37ES13LrVQpmOyh6zs5-12" target="t37ES13LrVQpmOyh6zs5-16">
          <mxGeometry relative="1" as="geometry" />
        </mxCell>
        <mxCell id="t37ES13LrVQpmOyh6zs5-35" style="edgeStyle=none;rounded=0;orthogonalLoop=1;jettySize=auto;html=1;exitX=0.5;exitY=0;exitDx=0;exitDy=0;entryX=0.917;entryY=0.75;entryDx=0;entryDy=0;entryPerimeter=0;endArrow=none;endFill=0;" edge="1" parent="1" source="t37ES13LrVQpmOyh6zs5-12" target="t37ES13LrVQpmOyh6zs5-11">
          <mxGeometry relative="1" as="geometry" />
        </mxCell>
        <mxCell id="t37ES13LrVQpmOyh6zs5-36" style="edgeStyle=none;rounded=0;orthogonalLoop=1;jettySize=auto;html=1;exitX=1;exitY=1;exitDx=0;exitDy=0;endArrow=none;endFill=0;" edge="1" parent="1" source="t37ES13LrVQpmOyh6zs5-12" target="t37ES13LrVQpmOyh6zs5-17">
          <mxGeometry relative="1" as="geometry" />
        </mxCell>
        <mxCell id="t37ES13LrVQpmOyh6zs5-12" value="" style="ellipse;whiteSpace=wrap;html=1;aspect=fixed;" vertex="1" parent="1">
          <mxGeometry x="250" y="170" width="20" height="20" as="geometry" />
        </mxCell>
        <mxCell id="t37ES13LrVQpmOyh6zs5-28" style="edgeStyle=none;rounded=0;orthogonalLoop=1;jettySize=auto;html=1;exitX=0;exitY=1;exitDx=0;exitDy=0;endArrow=none;endFill=0;" edge="1" parent="1" source="t37ES13LrVQpmOyh6zs5-13" target="t37ES13LrVQpmOyh6zs5-14">
          <mxGeometry relative="1" as="geometry" />
        </mxCell>
        <mxCell id="t37ES13LrVQpmOyh6zs5-33" style="edgeStyle=none;rounded=0;orthogonalLoop=1;jettySize=auto;html=1;exitX=1;exitY=1;exitDx=0;exitDy=0;endArrow=none;endFill=0;" edge="1" parent="1" source="t37ES13LrVQpmOyh6zs5-13" target="t37ES13LrVQpmOyh6zs5-15">
          <mxGeometry relative="1" as="geometry" />
        </mxCell>
        <mxCell id="t37ES13LrVQpmOyh6zs5-13" value="" style="ellipse;whiteSpace=wrap;html=1;aspect=fixed;" vertex="1" parent="1">
          <mxGeometry x="90" y="170" width="20" height="20" as="geometry" />
        </mxCell>
        <mxCell id="t37ES13LrVQpmOyh6zs5-29" style="edgeStyle=none;rounded=0;orthogonalLoop=1;jettySize=auto;html=1;exitX=0;exitY=1;exitDx=0;exitDy=0;entryX=0.5;entryY=0;entryDx=0;entryDy=0;endArrow=none;endFill=0;" edge="1" parent="1" source="t37ES13LrVQpmOyh6zs5-14" target="t37ES13LrVQpmOyh6zs5-18">
          <mxGeometry relative="1" as="geometry" />
        </mxCell>
        <mxCell id="t37ES13LrVQpmOyh6zs5-30" style="edgeStyle=none;rounded=0;orthogonalLoop=1;jettySize=auto;html=1;exitX=1;exitY=1;exitDx=0;exitDy=0;endArrow=none;endFill=0;" edge="1" parent="1" source="t37ES13LrVQpmOyh6zs5-14" target="t37ES13LrVQpmOyh6zs5-19">
          <mxGeometry relative="1" as="geometry" />
        </mxCell>
        <mxCell id="t37ES13LrVQpmOyh6zs5-14" value="" style="ellipse;whiteSpace=wrap;html=1;aspect=fixed;" vertex="1" parent="1">
          <mxGeometry x="50" y="210" width="20" height="20" as="geometry" />
        </mxCell>
        <mxCell id="t37ES13LrVQpmOyh6zs5-31" style="edgeStyle=none;rounded=0;orthogonalLoop=1;jettySize=auto;html=1;exitX=0;exitY=1;exitDx=0;exitDy=0;entryX=0.5;entryY=0;entryDx=0;entryDy=0;endArrow=none;endFill=0;" edge="1" parent="1" source="t37ES13LrVQpmOyh6zs5-15" target="t37ES13LrVQpmOyh6zs5-21">
          <mxGeometry relative="1" as="geometry" />
        </mxCell>
        <mxCell id="t37ES13LrVQpmOyh6zs5-32" style="edgeStyle=none;rounded=0;orthogonalLoop=1;jettySize=auto;html=1;exitX=1;exitY=1;exitDx=0;exitDy=0;endArrow=none;endFill=0;" edge="1" parent="1" source="t37ES13LrVQpmOyh6zs5-15" target="t37ES13LrVQpmOyh6zs5-20">
          <mxGeometry relative="1" as="geometry" />
        </mxCell>
        <mxCell id="t37ES13LrVQpmOyh6zs5-15" value="" style="ellipse;whiteSpace=wrap;html=1;aspect=fixed;" vertex="1" parent="1">
          <mxGeometry x="130" y="210" width="20" height="20" as="geometry" />
        </mxCell>
        <mxCell id="t37ES13LrVQpmOyh6zs5-37" style="edgeStyle=none;rounded=0;orthogonalLoop=1;jettySize=auto;html=1;exitX=0;exitY=1;exitDx=0;exitDy=0;endArrow=none;endFill=0;" edge="1" parent="1" source="t37ES13LrVQpmOyh6zs5-16" target="t37ES13LrVQpmOyh6zs5-22">
          <mxGeometry relative="1" as="geometry" />
        </mxCell>
        <mxCell id="t37ES13LrVQpmOyh6zs5-38" style="edgeStyle=none;rounded=0;orthogonalLoop=1;jettySize=auto;html=1;exitX=1;exitY=1;exitDx=0;exitDy=0;endArrow=none;endFill=0;" edge="1" parent="1" source="t37ES13LrVQpmOyh6zs5-16" target="t37ES13LrVQpmOyh6zs5-24">
          <mxGeometry relative="1" as="geometry" />
        </mxCell>
        <mxCell id="t37ES13LrVQpmOyh6zs5-16" value="" style="ellipse;whiteSpace=wrap;html=1;aspect=fixed;" vertex="1" parent="1">
          <mxGeometry x="210" y="210" width="20" height="20" as="geometry" />
        </mxCell>
        <mxCell id="t37ES13LrVQpmOyh6zs5-39" style="edgeStyle=none;rounded=0;orthogonalLoop=1;jettySize=auto;html=1;exitX=0;exitY=1;exitDx=0;exitDy=0;endArrow=none;endFill=0;" edge="1" parent="1" source="t37ES13LrVQpmOyh6zs5-17" target="t37ES13LrVQpmOyh6zs5-25">
          <mxGeometry relative="1" as="geometry" />
        </mxCell>
        <mxCell id="t37ES13LrVQpmOyh6zs5-40" style="edgeStyle=none;rounded=0;orthogonalLoop=1;jettySize=auto;html=1;exitX=1;exitY=1;exitDx=0;exitDy=0;entryX=0.3;entryY=0.033;entryDx=0;entryDy=0;entryPerimeter=0;endArrow=none;endFill=0;" edge="1" parent="1" source="t37ES13LrVQpmOyh6zs5-17" target="t37ES13LrVQpmOyh6zs5-26">
          <mxGeometry relative="1" as="geometry" />
        </mxCell>
        <mxCell id="t37ES13LrVQpmOyh6zs5-17" value="" style="ellipse;whiteSpace=wrap;html=1;aspect=fixed;" vertex="1" parent="1">
          <mxGeometry x="290" y="210" width="20" height="20" as="geometry" />
        </mxCell>
        <mxCell id="t37ES13LrVQpmOyh6zs5-18" value="" style="ellipse;whiteSpace=wrap;html=1;aspect=fixed;" vertex="1" parent="1">
          <mxGeometry x="30" y="260" width="20" height="20" as="geometry" />
        </mxCell>
        <mxCell id="t37ES13LrVQpmOyh6zs5-19" value="" style="ellipse;whiteSpace=wrap;html=1;aspect=fixed;" vertex="1" parent="1">
          <mxGeometry x="70" y="260" width="20" height="20" as="geometry" />
        </mxCell>
        <mxCell id="t37ES13LrVQpmOyh6zs5-20" value="" style="ellipse;whiteSpace=wrap;html=1;aspect=fixed;" vertex="1" parent="1">
          <mxGeometry x="150" y="260" width="20" height="20" as="geometry" />
        </mxCell>
        <mxCell id="t37ES13LrVQpmOyh6zs5-21" value="" style="ellipse;whiteSpace=wrap;html=1;aspect=fixed;" vertex="1" parent="1">
          <mxGeometry x="110" y="260" width="20" height="20" as="geometry" />
        </mxCell>
        <mxCell id="t37ES13LrVQpmOyh6zs5-22" value="" style="ellipse;whiteSpace=wrap;html=1;aspect=fixed;" vertex="1" parent="1">
          <mxGeometry x="190" y="260" width="20" height="20" as="geometry" />
        </mxCell>
        <mxCell id="t37ES13LrVQpmOyh6zs5-24" value="" style="ellipse;whiteSpace=wrap;html=1;aspect=fixed;" vertex="1" parent="1">
          <mxGeometry x="230" y="260" width="20" height="20" as="geometry" />
        </mxCell>
        <mxCell id="t37ES13LrVQpmOyh6zs5-25" value="" style="ellipse;whiteSpace=wrap;html=1;aspect=fixed;" vertex="1" parent="1">
          <mxGeometry x="270" y="260" width="20" height="20" as="geometry" />
        </mxCell>
        <mxCell id="t37ES13LrVQpmOyh6zs5-26" value="" style="ellipse;whiteSpace=wrap;html=1;aspect=fixed;" vertex="1" parent="1">
          <mxGeometry x="310" y="260" width="20" height="20" as="geometry" />
        </mxCell>
      </root>
    </mxGraphModel>
  </diagram>
</mxfile>
